<mxfile host="app.diagrams.net" agent="Mozilla/5.0 (Windows NT 10.0; Win64; x64) AppleWebKit/537.36 (KHTML, like Gecko) Chrome/131.0.0.0 Safari/537.36 Edg/131.0.0.0" version="25.0.3">
  <diagram id="C5RBs43oDa-KdzZeNtuy" name="Page-1">
    <mxGraphModel dx="1745" dy="502" grid="1" gridSize="10" guides="1" tooltips="1" connect="1" arrows="1" fold="1" page="1" pageScale="1" pageWidth="827" pageHeight="1169" math="0" shadow="0">
      <root>
        <mxCell id="WIyWlLk6GJQsqaUBKTNV-0" />
        <mxCell id="WIyWlLk6GJQsqaUBKTNV-1" parent="WIyWlLk6GJQsqaUBKTNV-0" />
        <mxCell id="mvioNwK95yMqdUQ73LqQ-36" value="" style="swimlane;fontFamily=Sarabun;fontSource=https%3A%2F%2Ffonts.googleapis.com%2Fcss%3Ffamily%3DSarabun;" parent="WIyWlLk6GJQsqaUBKTNV-1" vertex="1">
          <mxGeometry x="-700" width="1190" height="3500" as="geometry" />
        </mxCell>
        <mxCell id="mvioNwK95yMqdUQ73LqQ-35" value="&lt;font data-font-src=&quot;https://fonts.googleapis.com/css?family=Sarabun&quot; face=&quot;Sarabun&quot;&gt;Start&lt;/font&gt;" style="ellipse;whiteSpace=wrap;html=1;" parent="mvioNwK95yMqdUQ73LqQ-36" vertex="1">
          <mxGeometry x="255" y="40" width="130" height="30" as="geometry" />
        </mxCell>
        <mxCell id="QNhVIbcrn-Icenjs99R--4" style="edgeStyle=orthogonalEdgeStyle;rounded=0;orthogonalLoop=1;jettySize=auto;html=1;" parent="mvioNwK95yMqdUQ73LqQ-36" source="mvioNwK95yMqdUQ73LqQ-35" edge="1">
          <mxGeometry relative="1" as="geometry">
            <mxPoint x="320" y="190" as="targetPoint" />
          </mxGeometry>
        </mxCell>
        <mxCell id="uzmy-_oTyGtIKJ1p4iV2-3" style="edgeStyle=orthogonalEdgeStyle;rounded=0;orthogonalLoop=1;jettySize=auto;html=1;" edge="1" parent="mvioNwK95yMqdUQ73LqQ-36" source="uzmy-_oTyGtIKJ1p4iV2-5">
          <mxGeometry relative="1" as="geometry">
            <mxPoint x="322.5" y="320" as="targetPoint" />
          </mxGeometry>
        </mxCell>
        <mxCell id="uzmy-_oTyGtIKJ1p4iV2-4" style="edgeStyle=orthogonalEdgeStyle;rounded=0;orthogonalLoop=1;jettySize=auto;html=1;entryX=0.5;entryY=0;entryDx=0;entryDy=0;" edge="1" parent="mvioNwK95yMqdUQ73LqQ-36" source="uzmy-_oTyGtIKJ1p4iV2-5" target="uzmy-_oTyGtIKJ1p4iV2-22">
          <mxGeometry relative="1" as="geometry" />
        </mxCell>
        <mxCell id="uzmy-_oTyGtIKJ1p4iV2-5" value="is True?" style="rhombus;whiteSpace=wrap;html=1;" vertex="1" parent="mvioNwK95yMqdUQ73LqQ-36">
          <mxGeometry x="282.5" y="190" width="80" height="80" as="geometry" />
        </mxCell>
        <mxCell id="uzmy-_oTyGtIKJ1p4iV2-6" style="edgeStyle=orthogonalEdgeStyle;rounded=0;orthogonalLoop=1;jettySize=auto;html=1;" edge="1" parent="mvioNwK95yMqdUQ73LqQ-36" source="uzmy-_oTyGtIKJ1p4iV2-7">
          <mxGeometry relative="1" as="geometry">
            <mxPoint x="322.5" y="410" as="targetPoint" />
          </mxGeometry>
        </mxCell>
        <mxCell id="uzmy-_oTyGtIKJ1p4iV2-7" value="Read inputNum" style="rounded=0;whiteSpace=wrap;html=1;" vertex="1" parent="mvioNwK95yMqdUQ73LqQ-36">
          <mxGeometry x="262.5" y="320" width="120" height="60" as="geometry" />
        </mxCell>
        <mxCell id="uzmy-_oTyGtIKJ1p4iV2-8" style="edgeStyle=orthogonalEdgeStyle;rounded=0;orthogonalLoop=1;jettySize=auto;html=1;" edge="1" parent="mvioNwK95yMqdUQ73LqQ-36" source="uzmy-_oTyGtIKJ1p4iV2-10">
          <mxGeometry relative="1" as="geometry">
            <mxPoint x="323.5" y="600" as="targetPoint" />
          </mxGeometry>
        </mxCell>
        <mxCell id="uzmy-_oTyGtIKJ1p4iV2-9" style="edgeStyle=orthogonalEdgeStyle;rounded=0;orthogonalLoop=1;jettySize=auto;html=1;entryX=0;entryY=0.5;entryDx=0;entryDy=0;" edge="1" parent="mvioNwK95yMqdUQ73LqQ-36" source="uzmy-_oTyGtIKJ1p4iV2-10" target="uzmy-_oTyGtIKJ1p4iV2-22">
          <mxGeometry relative="1" as="geometry" />
        </mxCell>
        <mxCell id="uzmy-_oTyGtIKJ1p4iV2-10" value="inputNum == -1 ?" style="rhombus;whiteSpace=wrap;html=1;" vertex="1" parent="mvioNwK95yMqdUQ73LqQ-36">
          <mxGeometry x="268.5" y="410" width="110" height="110" as="geometry" />
        </mxCell>
        <mxCell id="uzmy-_oTyGtIKJ1p4iV2-11" value="Yes" style="text;html=1;align=center;verticalAlign=middle;resizable=0;points=[];autosize=1;strokeColor=none;fillColor=none;" vertex="1" parent="mvioNwK95yMqdUQ73LqQ-36">
          <mxGeometry x="268.5" y="260" width="40" height="30" as="geometry" />
        </mxCell>
        <mxCell id="uzmy-_oTyGtIKJ1p4iV2-12" value="No" style="text;html=1;align=center;verticalAlign=middle;resizable=0;points=[];autosize=1;strokeColor=none;fillColor=none;" vertex="1" parent="mvioNwK95yMqdUQ73LqQ-36">
          <mxGeometry x="262.5" y="510" width="40" height="30" as="geometry" />
        </mxCell>
        <mxCell id="uzmy-_oTyGtIKJ1p4iV2-13" style="edgeStyle=orthogonalEdgeStyle;rounded=0;orthogonalLoop=1;jettySize=auto;html=1;entryX=0.5;entryY=0;entryDx=0;entryDy=0;" edge="1" parent="mvioNwK95yMqdUQ73LqQ-36" source="uzmy-_oTyGtIKJ1p4iV2-15" target="uzmy-_oTyGtIKJ1p4iV2-16">
          <mxGeometry relative="1" as="geometry" />
        </mxCell>
        <mxCell id="uzmy-_oTyGtIKJ1p4iV2-14" style="edgeStyle=orthogonalEdgeStyle;rounded=0;orthogonalLoop=1;jettySize=auto;html=1;" edge="1" parent="mvioNwK95yMqdUQ73LqQ-36" source="uzmy-_oTyGtIKJ1p4iV2-15">
          <mxGeometry relative="1" as="geometry">
            <mxPoint x="332.5" y="930" as="targetPoint" />
            <Array as="points">
              <mxPoint x="462.5" y="660" />
              <mxPoint x="462.5" y="930" />
            </Array>
          </mxGeometry>
        </mxCell>
        <mxCell id="uzmy-_oTyGtIKJ1p4iV2-15" value="currElement == size ??" style="rhombus;whiteSpace=wrap;html=1;" vertex="1" parent="mvioNwK95yMqdUQ73LqQ-36">
          <mxGeometry x="254.5" y="600" width="139" height="120" as="geometry" />
        </mxCell>
        <mxCell id="uzmy-_oTyGtIKJ1p4iV2-16" value="add more size for store element" style="rounded=0;whiteSpace=wrap;html=1;" vertex="1" parent="mvioNwK95yMqdUQ73LqQ-36">
          <mxGeometry x="239" y="780" width="170" height="90" as="geometry" />
        </mxCell>
        <mxCell id="uzmy-_oTyGtIKJ1p4iV2-17" value="add inputNum to arr" style="rounded=0;whiteSpace=wrap;html=1;" vertex="1" parent="mvioNwK95yMqdUQ73LqQ-36">
          <mxGeometry x="234" y="1000" width="180" height="90" as="geometry" />
        </mxCell>
        <mxCell id="uzmy-_oTyGtIKJ1p4iV2-18" value="Yes" style="text;html=1;align=center;verticalAlign=middle;resizable=0;points=[];autosize=1;strokeColor=none;fillColor=none;" vertex="1" parent="mvioNwK95yMqdUQ73LqQ-36">
          <mxGeometry x="268.5" y="730" width="40" height="30" as="geometry" />
        </mxCell>
        <mxCell id="uzmy-_oTyGtIKJ1p4iV2-19" style="edgeStyle=orthogonalEdgeStyle;rounded=0;orthogonalLoop=1;jettySize=auto;html=1;entryX=0.5;entryY=0;entryDx=0;entryDy=0;" edge="1" parent="mvioNwK95yMqdUQ73LqQ-36" source="uzmy-_oTyGtIKJ1p4iV2-20" target="uzmy-_oTyGtIKJ1p4iV2-17">
          <mxGeometry relative="1" as="geometry" />
        </mxCell>
        <mxCell id="uzmy-_oTyGtIKJ1p4iV2-20" value="" style="ellipse;whiteSpace=wrap;html=1;aspect=fixed;" vertex="1" parent="mvioNwK95yMqdUQ73LqQ-36">
          <mxGeometry x="313.5" y="920" width="20" height="20" as="geometry" />
        </mxCell>
        <mxCell id="uzmy-_oTyGtIKJ1p4iV2-21" value="" style="edgeStyle=orthogonalEdgeStyle;rounded=0;orthogonalLoop=1;jettySize=auto;html=1;" edge="1" parent="mvioNwK95yMqdUQ73LqQ-36" source="uzmy-_oTyGtIKJ1p4iV2-16" target="uzmy-_oTyGtIKJ1p4iV2-20">
          <mxGeometry relative="1" as="geometry">
            <mxPoint x="-386" y="990" as="targetPoint" />
            <mxPoint x="-385.5" y="900" as="sourcePoint" />
          </mxGeometry>
        </mxCell>
        <mxCell id="uzmy-_oTyGtIKJ1p4iV2-25" style="edgeStyle=orthogonalEdgeStyle;rounded=0;orthogonalLoop=1;jettySize=auto;html=1;" edge="1" parent="mvioNwK95yMqdUQ73LqQ-36" source="uzmy-_oTyGtIKJ1p4iV2-22">
          <mxGeometry relative="1" as="geometry">
            <mxPoint x="320" y="1264" as="targetPoint" />
            <Array as="points">
              <mxPoint x="503" y="1180" />
              <mxPoint x="321" y="1180" />
            </Array>
          </mxGeometry>
        </mxCell>
        <mxCell id="uzmy-_oTyGtIKJ1p4iV2-22" value="" style="ellipse;whiteSpace=wrap;html=1;aspect=fixed;" vertex="1" parent="mvioNwK95yMqdUQ73LqQ-36">
          <mxGeometry x="492.5" y="455" width="20" height="20" as="geometry" />
        </mxCell>
        <mxCell id="uzmy-_oTyGtIKJ1p4iV2-23" value="No" style="text;html=1;align=center;verticalAlign=middle;resizable=0;points=[];autosize=1;strokeColor=none;fillColor=none;" vertex="1" parent="mvioNwK95yMqdUQ73LqQ-36">
          <mxGeometry x="378.5" y="600" width="40" height="30" as="geometry" />
        </mxCell>
        <mxCell id="uzmy-_oTyGtIKJ1p4iV2-24" value="Yes" style="text;html=1;align=center;verticalAlign=middle;resizable=0;points=[];autosize=1;strokeColor=none;fillColor=none;" vertex="1" parent="mvioNwK95yMqdUQ73LqQ-36">
          <mxGeometry x="374" y="420" width="40" height="30" as="geometry" />
        </mxCell>
        <mxCell id="uzmy-_oTyGtIKJ1p4iV2-27" style="edgeStyle=orthogonalEdgeStyle;rounded=0;orthogonalLoop=1;jettySize=auto;html=1;" edge="1" parent="mvioNwK95yMqdUQ73LqQ-36" source="uzmy-_oTyGtIKJ1p4iV2-26">
          <mxGeometry relative="1" as="geometry">
            <mxPoint x="321" y="1390" as="targetPoint" />
          </mxGeometry>
        </mxCell>
        <mxCell id="uzmy-_oTyGtIKJ1p4iV2-26" value="sort array&lt;div&gt;using selection sort&lt;/div&gt;" style="rounded=0;whiteSpace=wrap;html=1;" vertex="1" parent="mvioNwK95yMqdUQ73LqQ-36">
          <mxGeometry x="261" y="1266" width="120" height="60" as="geometry" />
        </mxCell>
        <mxCell id="uzmy-_oTyGtIKJ1p4iV2-29" style="edgeStyle=orthogonalEdgeStyle;rounded=0;orthogonalLoop=1;jettySize=auto;html=1;" edge="1" parent="mvioNwK95yMqdUQ73LqQ-36" source="uzmy-_oTyGtIKJ1p4iV2-28">
          <mxGeometry relative="1" as="geometry">
            <mxPoint x="318.5" y="1500" as="targetPoint" />
          </mxGeometry>
        </mxCell>
        <mxCell id="uzmy-_oTyGtIKJ1p4iV2-28" value="Display &quot;0-99&quot;" style="shape=parallelogram;perimeter=parallelogramPerimeter;whiteSpace=wrap;html=1;fixedSize=1;" vertex="1" parent="mvioNwK95yMqdUQ73LqQ-36">
          <mxGeometry x="258.5" y="1390" width="120" height="60" as="geometry" />
        </mxCell>
        <mxCell id="uzmy-_oTyGtIKJ1p4iV2-32" style="edgeStyle=orthogonalEdgeStyle;rounded=0;orthogonalLoop=1;jettySize=auto;html=1;" edge="1" parent="mvioNwK95yMqdUQ73LqQ-36" source="uzmy-_oTyGtIKJ1p4iV2-30">
          <mxGeometry relative="1" as="geometry">
            <mxPoint x="320" y="1610" as="targetPoint" />
          </mxGeometry>
        </mxCell>
        <mxCell id="uzmy-_oTyGtIKJ1p4iV2-30" value="Display whole value in array" style="shape=parallelogram;perimeter=parallelogramPerimeter;whiteSpace=wrap;html=1;fixedSize=1;" vertex="1" parent="mvioNwK95yMqdUQ73LqQ-36">
          <mxGeometry x="222.25" y="1500" width="195.5" height="60" as="geometry" />
        </mxCell>
        <mxCell id="uzmy-_oTyGtIKJ1p4iV2-35" style="edgeStyle=orthogonalEdgeStyle;rounded=0;orthogonalLoop=1;jettySize=auto;html=1;" edge="1" parent="mvioNwK95yMqdUQ73LqQ-36" source="uzmy-_oTyGtIKJ1p4iV2-31">
          <mxGeometry relative="1" as="geometry">
            <mxPoint x="318.5" y="1890" as="targetPoint" />
          </mxGeometry>
        </mxCell>
        <mxCell id="uzmy-_oTyGtIKJ1p4iV2-31" value="Display whole value in reverse array" style="shape=parallelogram;perimeter=parallelogramPerimeter;whiteSpace=wrap;html=1;fixedSize=1;" vertex="1" parent="mvioNwK95yMqdUQ73LqQ-36">
          <mxGeometry x="207.75" y="1750" width="221.5" height="60" as="geometry" />
        </mxCell>
        <mxCell id="uzmy-_oTyGtIKJ1p4iV2-34" value="&lt;font data-font-src=&quot;https://fonts.googleapis.com/css?family=Sarabun&quot; face=&quot;Sarabun&quot;&gt;Start&lt;/font&gt;" style="ellipse;whiteSpace=wrap;html=1;" vertex="1" parent="mvioNwK95yMqdUQ73LqQ-36">
          <mxGeometry x="253" y="1891" width="130" height="30" as="geometry" />
        </mxCell>
        <mxCell id="uzmy-_oTyGtIKJ1p4iV2-37" style="edgeStyle=orthogonalEdgeStyle;rounded=0;orthogonalLoop=1;jettySize=auto;html=1;" edge="1" parent="mvioNwK95yMqdUQ73LqQ-36" source="uzmy-_oTyGtIKJ1p4iV2-36">
          <mxGeometry relative="1" as="geometry">
            <mxPoint x="318.5" y="1750" as="targetPoint" />
          </mxGeometry>
        </mxCell>
        <mxCell id="uzmy-_oTyGtIKJ1p4iV2-36" value="Display &quot;99-0&quot;" style="shape=parallelogram;perimeter=parallelogramPerimeter;whiteSpace=wrap;html=1;fixedSize=1;" vertex="1" parent="mvioNwK95yMqdUQ73LqQ-36">
          <mxGeometry x="258.5" y="1610" width="120" height="60" as="geometry" />
        </mxCell>
        <mxCell id="uzmy-_oTyGtIKJ1p4iV2-33" value="No" style="text;html=1;align=center;verticalAlign=middle;resizable=0;points=[];autosize=1;strokeColor=none;fillColor=none;" vertex="1" parent="WIyWlLk6GJQsqaUBKTNV-1">
          <mxGeometry x="-340" y="168" width="40" height="30" as="geometry" />
        </mxCell>
      </root>
    </mxGraphModel>
  </diagram>
</mxfile>
